<svg width="87" height="82" viewBox="0 0 87 82" fill="none" xmlns="http://www.w3.org/2000/svg">
<path d="M49.1125 51.8844C45.1593 41.2469 32.2218 45.9906 31 51.3094C29.3468 45.6312 16.7687 41.3906 12.8875 51.8844C8.57498 63.5281 29.4906 73.95 31 75.675C32.5093 74.3094 53.425 63.3125 49.1125 51.8844Z" fill="#E3B5A4"/>
<path d="M51.125 49.2969C50.6937 47.9312 49.975 46.7094 48.9687 45.7031C48.0343 44.6969 46.8125 43.9062 45.5906 43.4031C44.9437 43.1156 44.2968 42.9719 43.65 42.8281C43.2906 42.7562 43.0031 42.7562 42.6437 42.6844H41.6375L42.5 43.1156L43.3625 43.5469C43.9375 43.8344 44.5125 44.1219 45.0156 44.4812C46.0937 45.1281 47.0281 45.9187 47.8906 46.7812C48.7531 47.6437 49.4 48.65 50.0468 49.8C50.3343 50.375 50.6218 50.95 50.8375 51.525C50.9812 51.8125 51.0531 52.1719 51.1968 52.4594L51.5562 53.3937C51.6281 53.0344 51.6281 52.675 51.6281 52.3875C51.6281 52.0281 51.6281 51.6687 51.5562 51.3812C51.4843 50.6625 51.3406 49.9437 51.125 49.2969Z" fill="#E3B5A4"/>
<path d="M52.5626 47.3563C52.4907 46.8531 52.4188 46.35 52.2751 45.8469C51.9876 44.8406 51.4126 43.9062 50.6938 43.1156C49.9751 42.325 49.1126 41.75 48.1782 41.4625C47.6751 41.3187 47.2438 41.175 46.7407 41.1031C46.5251 41.1031 46.2376 41.0312 46.022 41.0312C45.8063 41.0312 45.5188 41.0312 45.3032 41.1031C45.5188 41.2469 45.7345 41.3187 45.9501 41.4625C46.0938 41.5344 46.3095 41.6781 46.5251 41.75C46.9563 41.9656 47.3157 42.1812 47.6751 42.4688C48.3938 42.9719 49.1126 43.5469 49.6876 44.1219C50.2626 44.7688 50.7657 45.4875 51.2688 46.2781C51.4845 46.6375 51.7001 47.0687 51.9157 47.5C51.9876 47.7156 52.1313 47.9312 52.2032 48.1469C52.2751 48.3625 52.4188 48.5781 52.4907 48.8656C52.5626 48.5781 52.5626 48.3625 52.5626 48.075V47.3563Z" fill="#E3B5A4"/>
<path d="M11.0906 51.525C11.3062 50.95 11.5937 50.3031 11.8812 49.8C12.4562 48.65 13.175 47.6437 14.0375 46.7812C14.9 45.9187 15.8343 45.1281 16.9125 44.4812C17.4156 44.1219 17.9906 43.8344 18.5656 43.5469L19.4281 43.1156L20.2906 42.6844H19.2843C18.925 42.6844 18.6375 42.7562 18.2781 42.8281C17.6312 42.9719 16.9843 43.1156 16.3375 43.4031C15.1156 43.9062 13.9656 44.6969 13.0312 45.7031C12.0968 46.7094 11.3062 47.9312 10.875 49.2969C10.6593 49.9437 10.5156 50.6625 10.4437 51.3094C10.3718 51.6687 10.3718 52.0281 10.3718 52.3156C10.3718 52.675 10.3718 53.0344 10.4437 53.3219L10.8031 52.3875C10.875 52.1 10.9468 51.8125 11.0906 51.525Z" fill="#E3B5A4"/>
<path d="M12.3125 44.1937C12.8875 43.5469 13.6063 42.9719 14.325 42.4687C14.6844 42.2531 15.1156 41.9656 15.475 41.75C15.6906 41.6062 15.9063 41.5344 16.1219 41.3906C16.3375 41.2469 16.5531 41.175 16.7688 41.0312C16.5531 41.0312 16.2656 40.9594 16.05 40.9594C15.8344 40.9594 15.5469 40.9594 15.3313 41.0312C14.8281 41.1031 14.3969 41.2469 13.8938 41.3906C12.8875 41.8219 12.025 42.3969 11.3063 43.1156C10.5875 43.9062 10.0125 44.8406 9.725 45.8469C9.58125 46.35 9.50938 46.8531 9.4375 47.3562V48.1469C9.4375 48.4344 9.4375 48.65 9.50937 48.9375C9.58125 48.7219 9.725 48.5062 9.79688 48.2187C9.94063 47.9312 10.0125 47.7156 10.1563 47.5C10.3719 47.0687 10.5875 46.6375 10.8031 46.2781C11.2344 45.4875 11.7375 44.7687 12.3125 44.1937Z" fill="#E3B5A4"/>
<path d="M13.6063 65.1094L13.5344 65.2531C13.8938 66.3313 14.4688 67.1937 15.0438 68.0562C15.6188 68.9187 16.3375 69.6375 17.0563 70.2844C17.775 70.9312 18.5657 71.5781 19.4282 72.1531C20.2907 72.7281 21.225 73.1594 22.3032 73.4469L22.375 73.3031C20.9375 71.8656 19.5 70.5 18.0625 69.1344C16.5532 67.8406 15.1157 66.4031 13.6063 65.1094Z" fill="#E3B5A4"/>
<path d="M10.5875 67.2656L10.5156 67.4094C11.0188 68.6313 11.6656 69.6375 12.3844 70.5719C13.1031 71.5062 13.8937 72.3688 14.7562 73.1594C15.6187 73.95 16.4812 74.6687 17.4875 75.3875C18.4937 76.0344 19.5 76.6812 20.7219 77.0406L20.7937 76.8969C19.1406 75.2438 17.4156 73.6625 15.7625 72.0094C14.0375 70.4281 12.3125 68.775 10.5875 67.2656Z" fill="#E3B5A4"/>
<path d="M45.0155 70.2844C45.7343 69.5656 46.453 68.8469 47.028 68.0562C47.603 67.2656 48.178 66.3313 48.5374 65.2531L48.4655 65.1094C46.9562 66.4031 45.5187 67.8406 44.0093 69.1344C42.5718 70.5 41.1343 71.8656 39.6968 73.3031L39.7687 73.4469C40.8468 73.1594 41.7812 72.6562 42.6437 72.1531C43.5062 71.5781 44.2249 70.9312 45.0155 70.2844Z" fill="#E3B5A4"/>
<path d="M46.2375 72.0094C44.5844 73.6625 42.8594 75.2438 41.2063 76.8969L41.2782 77.0406C42.5 76.6094 43.5063 76.0344 44.5125 75.3875C45.5188 74.7406 46.3813 74.0219 47.2438 73.1594C48.1063 72.3688 48.8969 71.5062 49.6157 70.5719C50.3344 69.6375 50.9813 68.6313 51.4844 67.4094L51.4125 67.2656C49.6875 68.775 47.9625 70.4281 46.2375 72.0094Z" fill="#E3B5A4"/>
<path d="M21.4501 8.2875C19.3876 2.7375 12.6376 5.2125 12.0001 7.9875C11.1376 5.025 4.57507 2.8125 2.55007 8.2875C0.300072 14.3625 11.2126 19.8 12.0001 20.7C12.7876 19.9875 23.7001 14.25 21.4501 8.2875Z" fill="#E3B5A4"/>
<path d="M22.5001 6.9375C22.275 6.225 21.9 5.5875 21.375 5.0625C20.8875 4.5375 20.25 4.125 19.6125 3.8625C19.275 3.7125 18.9375 3.6375 18.6 3.5625C18.4125 3.525 18.2625 3.525 18.075 3.4875H17.55L18 3.7125L18.45 3.9375C18.75 4.0875 19.05 4.2375 19.3125 4.425C19.875 4.7625 20.3625 5.175 20.8125 5.625C21.2625 6.075 21.6 6.6 21.9375 7.2C22.0875 7.5 22.2375 7.8 22.35 8.1C22.425 8.25 22.4625 8.4375 22.5375 8.5875L22.725 9.075C22.7625 8.8875 22.7626 8.7 22.7626 8.55C22.7626 8.3625 22.7625 8.175 22.725 8.025C22.6875 7.65 22.6125 7.275 22.5001 6.9375Z" fill="#E3B5A4"/>
<path d="M23.2499 5.925C23.2124 5.6625 23.1749 5.4 23.0999 5.1375C22.9499 4.6125 22.6499 4.125 22.2749 3.7125C21.8999 3.3 21.4499 3 20.9624 2.85C20.6999 2.775 20.4749 2.7 20.2124 2.6625C20.0999 2.6625 19.9499 2.625 19.8374 2.625C19.7249 2.625 19.5749 2.625 19.4624 2.6625C19.5749 2.7375 19.6874 2.775 19.7999 2.85C19.8749 2.8875 19.9874 2.9625 20.0999 3C20.3249 3.1125 20.5124 3.225 20.6999 3.375C21.0749 3.6375 21.4499 3.9375 21.7499 4.2375C22.0499 4.575 22.3124 4.95 22.5749 5.3625C22.6874 5.55 22.7999 5.775 22.9124 6C22.9499 6.1125 23.0249 6.225 23.0624 6.3375C23.0999 6.45 23.1749 6.5625 23.2124 6.7125C23.2499 6.5625 23.2499 6.45 23.2499 6.3V5.925Z" fill="#E3B5A4"/>
<path d="M1.61255 8.1C1.72505 7.79999 1.87505 7.4625 2.02505 7.2C2.32505 6.6 2.70005 6.075 3.15005 5.625C3.60005 5.175 4.08755 4.7625 4.65005 4.425C4.91255 4.2375 5.21255 4.0875 5.51255 3.9375L5.96255 3.7125L6.41255 3.4875H5.88755C5.70005 3.4875 5.55005 3.525 5.36255 3.5625C5.02505 3.6375 4.68755 3.7125 4.35005 3.8625C3.71255 4.125 3.11255 4.5375 2.62505 5.0625C2.13755 5.5875 1.72505 6.225 1.50005 6.93749C1.38755 7.275 1.31255 7.64999 1.27505 7.98749C1.23755 8.17499 1.23755 8.3625 1.23755 8.5125C1.23755 8.7 1.23755 8.8875 1.27505 9.0375L1.46255 8.54999C1.50005 8.39999 1.53755 8.25 1.61255 8.1Z" fill="#E3B5A4"/>
<path d="M2.25 4.275C2.55 3.9375 2.925 3.6375 3.3 3.375C3.4875 3.2625 3.7125 3.1125 3.9 3C4.0125 2.925 4.125 2.8875 4.2375 2.8125C4.35 2.7375 4.4625 2.7 4.575 2.625C4.4625 2.625 4.3125 2.5875 4.2 2.5875C4.0875 2.5875 3.9375 2.5875 3.825 2.625C3.5625 2.6625 3.3375 2.7375 3.075 2.8125C2.55 3.0375 2.1 3.3375 1.725 3.7125C1.35 4.125 1.05 4.6125 0.9 5.1375C0.825 5.4 0.7875 5.6625 0.75 5.925V6.3375C0.75 6.4875 0.75 6.6 0.7875 6.75C0.825 6.6375 0.9 6.525 0.9375 6.375C1.0125 6.225 1.05 6.1125 1.125 6C1.2375 5.775 1.35 5.55 1.4625 5.3625C1.6875 4.95 1.95 4.575 2.25 4.275Z" fill="#E3B5A4"/>
<path d="M2.92495 15.1875L2.88745 15.2625C3.07495 15.825 3.37495 16.275 3.67495 16.725C3.97495 17.175 4.34995 17.55 4.72495 17.8875C5.09995 18.225 5.51245 18.5625 5.96245 18.8625C6.41245 19.1625 6.89995 19.3875 7.46245 19.5375L7.49995 19.4625C6.74995 18.7125 5.99995 18 5.24995 17.2875C4.46245 16.6125 3.71245 15.8625 2.92495 15.1875Z" fill="#E3B5A4"/>
<path d="M1.35 16.3125L1.3125 16.3875C1.575 17.025 1.9125 17.55 2.2875 18.0375C2.6625 18.525 3.075 18.975 3.525 19.3875C3.975 19.8 4.425 20.175 4.95 20.55C5.475 20.8875 6 21.225 6.6375 21.4125L6.675 21.3375C5.8125 20.475 4.9125 19.65 4.05 18.7875C3.15 17.9625 2.25 17.1 1.35 16.3125Z" fill="#E3B5A4"/>
<path d="M19.3126 17.8875C19.6876 17.5125 20.0626 17.1375 20.3626 16.725C20.6626 16.3125 20.9626 15.825 21.1501 15.2625L21.1126 15.1875C20.3251 15.8625 19.5751 16.6125 18.7876 17.2875C18.0376 18 17.2876 18.7125 16.5376 19.4625L16.5751 19.5375C17.1376 19.3875 17.6251 19.125 18.0751 18.8625C18.5251 18.5625 18.9001 18.225 19.3126 17.8875Z" fill="#E3B5A4"/>
<path d="M19.95 18.7875C19.0875 19.65 18.1875 20.475 17.325 21.3375L17.3625 21.4125C18 21.1875 18.525 20.8875 19.05 20.55C19.575 20.2125 20.025 19.8375 20.475 19.3875C20.925 18.975 21.3375 18.525 21.7125 18.0375C22.0875 17.55 22.425 17.025 22.6875 16.3875L22.65 16.3125C21.75 17.1 20.85 17.9625 19.95 18.7875Z" fill="#E3B5A4"/>
<path d="M84.4501 20.2875C82.3876 14.7375 75.6376 17.2125 75.0001 19.9875C74.1376 17.025 67.5751 14.8125 65.5501 20.2875C63.3001 26.3625 74.2126 31.8 75.0001 32.7C75.7876 31.9875 86.7001 26.25 84.4501 20.2875Z" fill="#E3B5A4"/>
<path d="M85.5001 18.9375C85.275 18.225 84.9 17.5875 84.375 17.0625C83.8875 16.5375 83.25 16.125 82.6125 15.8625C82.275 15.7125 81.9375 15.6375 81.6 15.5625C81.4125 15.525 81.2625 15.525 81.075 15.4875H80.55L81 15.7125L81.45 15.9375C81.75 16.0875 82.05 16.2375 82.3125 16.425C82.875 16.7625 83.3625 17.175 83.8125 17.625C84.2625 18.075 84.6 18.6 84.9375 19.2C85.0875 19.5 85.2375 19.8 85.35 20.1C85.425 20.25 85.4625 20.4375 85.5375 20.5875L85.725 21.075C85.7625 20.8875 85.7626 20.7 85.7626 20.55C85.7626 20.3625 85.7625 20.175 85.725 20.025C85.6875 19.65 85.6125 19.275 85.5001 18.9375Z" fill="#E3B5A4"/>
<path d="M86.2499 17.925C86.2124 17.6625 86.1749 17.4 86.0999 17.1375C85.9499 16.6125 85.6499 16.125 85.2749 15.7125C84.8999 15.3 84.4499 15 83.9624 14.85C83.6999 14.775 83.4749 14.7 83.2124 14.6625C83.0999 14.6625 82.9499 14.625 82.8374 14.625C82.7249 14.625 82.5749 14.625 82.4624 14.6625C82.5749 14.7375 82.6874 14.775 82.7999 14.85C82.8749 14.8875 82.9874 14.9625 83.0999 15C83.3249 15.1125 83.5124 15.225 83.6999 15.375C84.0749 15.6375 84.4499 15.9375 84.7499 16.2375C85.0499 16.575 85.3124 16.95 85.5749 17.3625C85.6874 17.55 85.7999 17.775 85.9124 18C85.9499 18.1125 86.0249 18.225 86.0624 18.3375C86.0999 18.45 86.1749 18.5625 86.2124 18.7125C86.2499 18.5625 86.2499 18.45 86.2499 18.3V17.925Z" fill="#E3B5A4"/>
<path d="M64.6125 20.1C64.725 19.8 64.875 19.4625 65.025 19.2C65.325 18.6 65.7 18.075 66.15 17.625C66.6 17.175 67.0875 16.7625 67.65 16.425C67.9125 16.2375 68.2125 16.0875 68.5125 15.9375L68.9625 15.7125L69.4125 15.4875H68.8875C68.7 15.4875 68.55 15.525 68.3625 15.5625C68.025 15.6375 67.6875 15.7125 67.35 15.8625C66.7125 16.125 66.1125 16.5375 65.625 17.0625C65.1375 17.5875 64.725 18.225 64.5 18.9375C64.3875 19.275 64.3125 19.65 64.275 19.9875C64.2375 20.175 64.2375 20.3625 64.2375 20.5125C64.2375 20.7 64.2375 20.8875 64.275 21.0375L64.4625 20.55C64.5 20.4 64.5375 20.25 64.6125 20.1Z" fill="#E3B5A4"/>
<path d="M65.25 16.275C65.55 15.9375 65.925 15.6375 66.3 15.375C66.4875 15.2625 66.7125 15.1125 66.9 15C67.0125 14.925 67.125 14.8875 67.2375 14.8125C67.35 14.7375 67.4625 14.7 67.575 14.625C67.4625 14.625 67.3125 14.5875 67.2 14.5875C67.0875 14.5875 66.9375 14.5875 66.825 14.625C66.5625 14.6625 66.3375 14.7375 66.075 14.8125C65.55 15.0375 65.1 15.3375 64.725 15.7125C64.35 16.125 64.05 16.6125 63.9 17.1375C63.825 17.4 63.7875 17.6625 63.75 17.925V18.3375C63.75 18.4875 63.75 18.6 63.7875 18.75C63.825 18.6375 63.9 18.525 63.9375 18.375C64.0125 18.225 64.05 18.1125 64.125 18C64.2375 17.775 64.35 17.55 64.4625 17.3625C64.6875 16.95 64.95 16.575 65.25 16.275Z" fill="#E3B5A4"/>
<path d="M65.925 27.1875L65.8875 27.2625C66.075 27.825 66.375 28.275 66.675 28.725C66.975 29.175 67.35 29.55 67.725 29.8875C68.1 30.225 68.5125 30.5625 68.9625 30.8625C69.4125 31.1625 69.9 31.3875 70.4625 31.5375L70.5 31.4625C69.75 30.7125 69 30 68.25 29.2875C67.4625 28.6125 66.7125 27.8625 65.925 27.1875Z" fill="#E3B5A4"/>
<path d="M64.35 28.3125L64.3125 28.3875C64.575 29.025 64.9125 29.55 65.2875 30.0375C65.6625 30.525 66.075 30.975 66.525 31.3875C66.975 31.8 67.425 32.175 67.95 32.55C68.475 32.8875 69 33.225 69.6375 33.4125L69.675 33.3375C68.8125 32.475 67.9125 31.65 67.05 30.7875C66.15 29.9625 65.25 29.1 64.35 28.3125Z" fill="#E3B5A4"/>
<path d="M82.3126 29.8875C82.6876 29.5125 83.0626 29.1375 83.3626 28.725C83.6626 28.3125 83.9626 27.825 84.1501 27.2625L84.1126 27.1875C83.3251 27.8625 82.5751 28.6125 81.7876 29.2875C81.0376 30 80.2876 30.7125 79.5376 31.4625L79.5751 31.5375C80.1376 31.3875 80.6251 31.125 81.0751 30.8625C81.5251 30.5625 81.9001 30.225 82.3126 29.8875Z" fill="#E3B5A4"/>
<path d="M82.95 30.7875C82.0875 31.65 81.1875 32.475 80.325 33.3375L80.3625 33.4125C81 33.1875 81.525 32.8875 82.05 32.55C82.575 32.2125 83.025 31.8375 83.475 31.3875C83.925 30.975 84.3375 30.525 84.7125 30.0375C85.0875 29.55 85.425 29.025 85.6875 28.3875L85.65 28.3125C84.75 29.1 83.85 29.9625 82.95 30.7875Z" fill="#E3B5A4"/>
</svg>
